<svg width="24" height="24" viewBox="0 0 24 24" fill="none" xmlns="http://www.w3.org/2000/svg">
<path d="M14.5 8.25C14.1458 8.25 13.8492 8.13 13.61 7.89C13.3708 7.65 13.2508 7.35333 13.25 7V2C13.25 1.64583 13.37 1.34917 13.61 1.11C13.85 0.870833 14.1467 0.750833 14.5 0.75H22C22.3542 0.75 22.6512 0.87 22.8912 1.11C23.1312 1.35 23.2508 1.64667 23.25 2V7C23.25 7.35417 23.13 7.65125 22.89 7.89125C22.65 8.13125 22.3533 8.25083 22 8.25H14.5ZM2 13.25C1.64583 13.25 1.34917 13.13 1.11 12.89C0.870833 12.65 0.750833 12.3533 0.75 12V2C0.75 1.64583 0.87 1.34917 1.11 1.11C1.35 0.870833 1.64667 0.750833 2 0.75H9.5C9.85417 0.75 10.1513 0.87 10.3913 1.11C10.6313 1.35 10.7508 1.64667 10.75 2V12C10.75 12.3542 10.63 12.6513 10.39 12.8913C10.15 13.1313 9.85333 13.2508 9.5 13.25H2ZM14.5 23.25C14.1458 23.25 13.8492 23.13 13.61 22.89C13.3708 22.65 13.2508 22.3533 13.25 22V12C13.25 11.6458 13.37 11.3492 13.61 11.11C13.85 10.8708 14.1467 10.7508 14.5 10.75H22C22.3542 10.75 22.6512 10.87 22.8912 11.11C23.1312 11.35 23.2508 11.6467 23.25 12V22C23.25 22.3542 23.13 22.6512 22.89 22.8912C22.65 23.1312 22.3533 23.2508 22 23.25H14.5ZM2 23.25C1.64583 23.25 1.34917 23.13 1.11 22.89C0.870833 22.65 0.750833 22.3533 0.75 22V17C0.75 16.6458 0.87 16.3492 1.11 16.11C1.35 15.8708 1.64667 15.7508 2 15.75H9.5C9.85417 15.75 10.1513 15.87 10.3913 16.11C10.6313 16.35 10.7508 16.6467 10.75 17V22C10.75 22.3542 10.63 22.6512 10.39 22.8912C10.15 23.1312 9.85333 23.2508 9.5 23.25H2Z" fill="#EFF6F8"/>
</svg>
