<svg width="30" height="30" viewBox="0 0 30 30" fill="none" xmlns="http://www.w3.org/2000/svg">
<path d="M14.9998 25.1998C9.3598 25.1998 4.7998 20.6398 4.7998 14.9998C4.7998 9.3598 9.3598 4.7998 14.9998 4.7998C20.6398 4.7998 25.1998 9.3598 25.1998 14.9998C25.1998 20.6398 20.6398 25.1998 14.9998 25.1998ZM14.9998 5.9998C10.0198 5.9998 5.9998 10.0198 5.9998 14.9998C5.9998 19.9798 10.0198 23.9998 14.9998 23.9998C19.9798 23.9998 23.9998 19.9798 23.9998 14.9998C23.9998 10.0198 19.9798 5.9998 14.9998 5.9998Z" fill="#796FAB"/>
<path d="M9.59961 14.4004H20.3996V15.6004H9.59961V14.4004Z" fill="#796FAB"/>
<path d="M14.4004 9.59961H15.6004V20.3996H14.4004V9.59961Z" fill="#796FAB"/>
</svg>
