<svg width="27" height="27" viewBox="0 0 27 27" fill="none" xmlns="http://www.w3.org/2000/svg">
<path fill-rule="evenodd" clip-rule="evenodd" d="M4.75 0.375C4.54705 0.375007 4.3481 0.431482 4.17541 0.538108C4.00272 0.644733 3.86311 0.797303 3.77219 0.97875L0.490937 7.54125C0.414709 7.69334 0.375011 7.86112 0.375 8.03125V12.4062C0.375 12.6963 0.490234 12.9745 0.695352 13.1796C0.90047 13.3848 1.17867 13.5 1.46875 13.5H2.5625V25.5312C2.5625 25.8213 2.67773 26.0995 2.88285 26.3046C3.08797 26.5098 3.36617 26.625 3.65625 26.625H23.3438C23.6338 26.625 23.912 26.5098 24.1171 26.3046C24.3223 26.0995 24.4375 25.8213 24.4375 25.5312V13.5H25.5312C25.8213 13.5 26.0995 13.3848 26.3046 13.1796C26.5098 12.9745 26.625 12.6963 26.625 12.4062V8.03125C26.625 7.86112 26.5853 7.69334 26.5091 7.54125L23.2278 0.97875C23.1369 0.797303 22.9973 0.644733 22.8246 0.538108C22.6519 0.431482 22.453 0.375007 22.25 0.375H4.75ZM24.4375 8.28938V11.3125H20.0625V9.125H17.875V11.3125H14.5938V9.125H12.4062V11.3125H9.125V9.125H6.9375V11.3125H2.5625V8.28938L5.42594 2.5625H21.5741L24.4375 8.28938ZM10.2188 17.875H12.4062V15.6875H10.2188V17.875ZM14.5938 17.875H16.7812V15.6875H14.5938V17.875ZM12.4062 21.1562H10.2188V18.9688H12.4062V21.1562ZM14.5938 21.1562H16.7812V18.9688H14.5938V21.1562Z" fill="#EFF6F8"/>
</svg>
