<svg width="25" height="26" viewBox="0 0 25 26" fill="none" xmlns="http://www.w3.org/2000/svg">
<path fill-rule="evenodd" clip-rule="evenodd" d="M22.75 10.725C22.3625 6.75002 20.0125 0.5 12.7501 0.5C5.48753 0.5 3.13751 6.75002 2.75003 10.725C1.39066 11.2409 0.493995 12.5461 0.50003 14V15.75C0.50003 17.683 2.06706 19.25 4.00001 19.25C5.93302 19.25 7.50005 17.683 7.50005 15.75V14C7.49372 12.5774 6.63005 11.2991 5.31251 10.7625C5.56253 8.46248 6.78755 3.00002 12.7501 3.00002C18.7126 3.00002 19.925 8.46248 20.1751 10.7625C18.8602 11.3003 18.0009 12.5795 18.0001 14V15.75C18.0027 16.4086 18.1905 17.0532 18.5419 17.6101C18.8934 18.1671 19.3943 18.6141 19.9876 18.9C19.4626 19.8875 18.125 21.225 14.8375 21.625C14.1804 20.6271 12.909 20.2337 11.8031 20.6861C10.6972 21.1385 10.066 22.3102 10.2966 23.4825C10.5272 24.6549 11.5552 25.5 12.7501 25.5C13.213 25.4974 13.6662 25.3663 14.059 25.1214C14.4519 24.8764 14.769 24.5271 14.975 24.1125C20.3375 23.5 22.0501 20.7375 22.5875 19.1125C24.0417 18.6414 25.0196 17.2784 25 15.75V14C25.006 12.5461 24.1094 11.2409 22.75 10.725ZM5.00003 15.75C5.00003 16.3023 4.55232 16.75 4.00001 16.75C3.44771 16.75 3.00005 16.3023 3.00005 15.75V14C2.99904 13.868 3.02416 13.7372 3.07396 13.615C3.12376 13.4928 3.19726 13.3816 3.29022 13.2879C3.38318 13.1943 3.49376 13.1199 3.61558 13.0692C3.73741 13.0184 3.86807 12.9923 4.00004 12.9923C4.13201 12.9923 4.26267 13.0184 4.3845 13.0692C4.50632 13.1199 4.6169 13.1943 4.70986 13.2879C4.80282 13.3816 4.87632 13.4928 4.92612 13.615C4.97592 13.7372 5.00104 13.868 5.00003 14V15.75ZM20.5 14C20.5 13.4477 20.9477 13 21.5 13C22.0523 13 22.5001 13.4477 22.5001 14V15.75C22.5001 16.3023 22.0523 16.75 21.5 16.75C20.9477 16.75 20.5 16.3023 20.5 15.75V14Z" fill="#EFF6F8"/>
</svg>
