<svg width="18" height="24" viewBox="0 0 18 24" fill="none" xmlns="http://www.w3.org/2000/svg">
<path d="M1.5 4.75C1.5 3.35 1.5 2.65 1.7725 2.115C2.01218 1.64462 2.39462 1.26218 2.865 1.0225C3.4 0.75 4.1 0.75 5.5 0.75H12.5C13.9 0.75 14.6 0.75 15.135 1.0225C15.6054 1.26218 15.9878 1.64462 16.2275 2.115C16.5 2.65 16.5 3.35 16.5 4.75V21.3812C16.5 21.9887 16.5 22.2925 16.3738 22.4588C16.3192 22.5311 16.2496 22.5906 16.1697 22.6334C16.0899 22.6761 16.0017 22.701 15.9112 22.7063C15.7025 22.7188 15.45 22.55 14.945 22.2137L9 18.25L3.055 22.2125C2.55 22.55 2.2975 22.7188 2.0875 22.7063C1.99729 22.7008 1.90935 22.6758 1.82972 22.6331C1.75009 22.5904 1.68067 22.5309 1.62625 22.4588C1.5 22.2925 1.5 21.9887 1.5 21.3812V4.75Z" fill="#EFF6F8" stroke="#EFF6F8" stroke-width="1.5" stroke-linecap="round" stroke-linejoin="round"/>
</svg>
