<svg width="11" height="21" viewBox="0 0 11 21" fill="none" xmlns="http://www.w3.org/2000/svg">
<path d="M11 5V15.5C11 16.9587 10.4205 18.3576 9.38909 19.3891C8.35764 20.4205 6.95869 21 5.5 21C4.04131 21 2.64236 20.4205 1.61091 19.3891C0.579463 18.3576 0 16.9587 0 15.5V4C0 2.93913 0.421427 1.92172 1.17157 1.17157C1.92172 0.421427 2.93913 0 4 0C5.06087 0 6.07828 0.421427 6.82843 1.17157C7.57857 1.92172 8 2.93913 8 4V14.5C8 15.163 7.73661 15.7989 7.26777 16.2678C6.79893 16.7366 6.16304 17 5.5 17C4.83696 17 4.20107 16.7366 3.73223 16.2678C3.26339 15.7989 3 15.163 3 14.5V5H4V14.5C4 14.8978 4.15804 15.2794 4.43934 15.5607C4.72064 15.842 5.10218 16 5.5 16C5.89782 16 6.27936 15.842 6.56066 15.5607C6.84196 15.2794 7 14.8978 7 14.5V4C7 3.20435 6.68393 2.44129 6.12132 1.87868C5.55871 1.31607 4.79565 1 4 1C3.20435 1 2.44129 1.31607 1.87868 1.87868C1.31607 2.44129 1 3.20435 1 4V15.5C1 18 3 20 5.5 20C8 20 10 18 10 15.5V5H11Z" fill="black" fill-opacity="0.5"/>
</svg>