<svg width="18" height="18" viewBox="0 0 18 18" fill="none" xmlns="http://www.w3.org/2000/svg">
<path d="M10.6657 7.33335L8.16574 9.83335M15.9057 1.52585C15.9848 1.49857 16.07 1.49407 16.1515 1.51289C16.233 1.53171 16.3076 1.57308 16.3667 1.63228C16.4258 1.69147 16.467 1.7661 16.4857 1.84763C16.5044 1.92917 16.4998 2.01432 16.4724 2.09335L11.5357 16.2017C11.5062 16.286 11.452 16.3595 11.3802 16.4127C11.3083 16.4658 11.2222 16.4962 11.1329 16.4998C11.0436 16.5034 10.9553 16.48 10.8794 16.4328C10.8036 16.3856 10.7436 16.3167 10.7074 16.235L8.02491 10.2C7.97977 10.0997 7.89943 10.0193 7.79907 9.97419L1.76407 7.29085C1.68265 7.2545 1.614 7.19457 1.56699 7.1188C1.51998 7.04303 1.49677 6.9549 1.50036 6.86581C1.50395 6.77671 1.53417 6.69074 1.58712 6.619C1.64008 6.54726 1.71332 6.49304 1.79741 6.46335L15.9057 1.52585Z" stroke="black" stroke-opacity="0.5" stroke-width="1.5" stroke-linecap="round" stroke-linejoin="round"/>
</svg>
